<svg width="381" height="86" viewBox="0 0 381 86" fill="none" xmlns="http://www.w3.org/2000/svg">
<g clip-path="url(#clip0_10_2)">
<path d="M354.073 42.563C357.056 42.931 358.625 39.7651 356.708 37.8085C354.707 36.209 351.494 37.3934 350.276 39.5603L347.805 37.3242C350.503 33.0292 358.432 32.4951 361.077 37.0447C362.536 39.8343 360.792 43.4901 357.635 43.9467V44.1238C362.209 44.633 363.385 50.9123 359.84 53.5109C356.085 56.3116 349.443 55.6335 347.069 51.333L349.925 49.155C351.189 52.6004 357.853 53.3366 357.9 48.8893C358.133 45.6625 354.474 45.7012 352.044 45.8009V42.563H354.076H354.073Z" fill="black"/>
<path d="M364.667 34.2635C373.232 34.0725 380.889 33.317 381 44.5334C380.895 55.7498 373.218 54.997 364.667 54.8033V34.2635ZM372.141 51.3606C377.076 51.463 377.056 46.7363 376.879 42.9144C377.029 37.4405 372.637 37.5263 368.552 37.7061V51.3606H372.141Z" fill="black"/>
<path d="M143.555 20.0527H163.727C174.113 20.0527 181.114 25.8477 181.114 35.4839C181.114 45.8701 173.587 51.2915 163.35 51.2915H151.306V72.3682H143.555V20.0527ZM151.306 44.8157H162.822C169.596 44.8157 173.208 41.5778 173.208 35.6333C173.208 29.6889 168.918 26.5257 163.046 26.5257H151.304V44.8157H151.306Z" fill="black"/>
<path d="M196.393 17.1912V39.4718C198.275 36.3114 201.737 33.1482 208.135 33.1482C214.534 33.1482 221.081 36.685 221.081 47.9014V72.3654H213.703V49.108C213.703 42.8619 211.144 39.3971 205.8 39.3971C199.1 39.3971 196.39 43.9882 196.39 51.5156V72.3654H189.012V17.1912H196.39H196.393Z" fill="black"/>
<path d="M260.75 63.7089C260.75 67.2457 261.051 71.311 261.276 72.3654H254.277C253.975 71.538 253.751 69.6561 253.599 67.6221C252.32 70.1072 249.309 73.2676 242.006 73.2676C232.898 73.2676 229.06 67.3204 229.06 61.5254C229.06 52.9436 235.835 48.9558 247.2 48.9558H253.524V45.8701C253.524 42.6322 252.47 38.7938 245.772 38.7938C239.676 38.7938 238.621 41.73 238.021 44.6635H230.87C231.396 39.0927 234.858 33.0707 245.999 33.1482C255.558 33.1482 260.753 37.0614 260.753 45.7926V63.7062L260.75 63.7089ZM253.599 53.9233H247.729C240.351 53.9233 236.59 56.0321 236.59 61.0743C236.59 64.838 239.15 67.6221 243.666 67.6221C252.398 67.6221 253.602 61.6749 253.602 55.1271V53.9233H253.599Z" fill="black"/>
<path d="M275.428 61.3012C276.408 65.2891 279.419 67.5473 284.386 67.5473C289.656 67.5473 291.687 65.3638 291.687 62.1287C291.687 58.8936 289.954 57.2359 283.03 55.5063C271.739 52.7969 269.556 49.3349 269.556 44.0657C269.556 38.7965 273.546 33.151 283.706 33.151C293.865 33.151 297.93 39.0207 298.384 44.2899H291.308C290.782 42.0316 289.124 38.719 283.404 38.719C278.362 38.719 276.856 41.1267 276.856 43.4624C276.856 46.1717 278.362 47.4503 285.211 49.108C297.103 51.892 299.286 55.8826 299.286 61.5282C299.286 68.2281 294.092 73.2704 284.082 73.2704C274.072 73.2704 269.027 68.1506 268.05 61.3012H275.425H275.428Z" fill="black"/>
<path d="M312.534 54.6013C312.609 61.8271 316.223 67.171 322.469 67.171C328.189 67.171 330.071 64.3095 331.2 61.6001H338.653C337.147 66.493 333.082 73.2676 322.245 73.2676C310.126 73.2676 305.084 63.5567 305.084 53.6216C305.084 42.1064 310.879 33.1482 322.699 33.1482C335.194 33.1482 339.334 43.0086 339.334 51.4382C339.334 52.642 339.334 53.5469 339.184 54.5986H312.539L312.534 54.6013ZM331.878 49.5591C331.803 43.6119 328.867 38.8713 322.621 38.8713C316.375 38.8713 313.364 43.313 312.761 49.5591H331.878Z" fill="black"/>
<path opacity="0.25" d="M29.2351 27.2757L99.1099 71.3913C101.924 70.0851 104.105 68.7761 106.646 66.9883L36.0513 21.8931L29.2379 27.2757H29.2351Z" fill="#29AF7F"/>
<path opacity="0.25" d="M45.5684 76.1153L54.4297 70.5057L9.21272 43.0944L2.37994 48.4908L45.5656 76.1153H45.5684Z" fill="#29AF7F"/>
<path opacity="0.25" d="M6.98499 57.0948L0 62.4581L1.45843 67.326L29.7277 85.5799L38.7523 79.8596L8.42405 61.2266L6.98499 57.0948Z" fill="#29AF7F"/>
<path opacity="0.25" d="M22.6541 32.4702L15.9653 37.7588L68.563 71.3913C74.8783 75.3349 83.2691 76.9953 90.5364 75.3681C90.5945 75.3543 90.6526 75.3432 90.7107 75.3294L22.6541 32.4702Z" fill="#29AF7F"/>
<path opacity="0.25" d="M113.168 60.7837L113.426 60.5845C115.471 58.9932 117.231 57.0643 118.626 54.8808L49.5923 11.1942L42.8647 16.5077L113.168 60.7837Z" fill="#29AF7F"/>
<path opacity="0.25" d="M120.339 46.1468C120.339 46.1468 120.101 37.042 113.16 32.7304C106.452 28.5681 62.959 0.625427 62.959 0.625427L56.8208 5.48503L120.339 46.1496V46.1468Z" fill="#29AF7F"/>
<path d="M34.4406 23.1634L27.2868 28.8144V41.1793L67.2263 66.7503C74.8395 71.0426 82.8789 72.1468 89.3491 70.1515C89.4072 70.1349 34.269 35.816 34.269 35.816L34.4378 23.1634H34.4406Z" fill="#29AF7F"/>
<path d="M48.1643 12.3206L40.9192 18.0436V30.771L97.1838 66.2522C99.9982 64.9432 102.81 63.2329 105.348 61.4452L47.99 25.2776L48.1643 12.3233V12.3206Z" fill="#29AF7F"/>
<path d="M6.98499 57.092L7.15103 44.7216L0 50.3727V62.4581L29.6059 81.7166L37.5014 76.7684L6.98499 57.092Z" fill="#29AF7F"/>
<path d="M45.5713 72.216L53.2287 67.4145L20.5509 46.3572L20.717 34.0089L13.5853 39.6738L13.5687 51.7204L45.574 72.216H45.5713Z" fill="#29AF7F"/>
<path d="M116.567 48.9059L61.7109 14.7393L61.888 1.47223L54.7037 7.15652L54.7259 20.1053L110.581 55.3319C112.856 53.5414 114.843 51.4187 116.481 49.0332L116.567 48.9087V48.9059Z" fill="#29AF7F"/>
<path d="M68.4579 0V9.41479L118.396 41.3481C118.153 34.9913 114.544 28.4021 108.995 24.6854L68.4579 0Z" fill="#29AF7F"/>
</g>
<defs>
<clipPath id="clip0_10_2">
<rect width="381" height="85.5799" fill="black"/>
</clipPath>
</defs>
</svg>
